<svg width="64" height="64" viewBox="0 0 64 64" fill="none" xmlns="http://www.w3.org/2000/svg">
<path d="M46.66 36.2C44.4713 36.2158 42.301 35.8002 40.273 34.9769C38.245 34.1536 36.3991 32.9388 34.8408 31.4018C33.2825 29.8649 32.0423 28.0359 31.1911 26.0195C30.3399 24.0031 29.8944 21.8387 29.88 19.65C29.8841 18.2488 30.0689 16.8539 30.43 15.5C27.4438 15.8712 24.6152 17.049 22.2481 18.9069C19.8811 20.7649 18.0649 23.2327 16.995 26.0452C15.925 28.8577 15.6415 31.9086 16.1751 34.87C16.7087 37.8315 18.0392 40.5916 20.0235 42.8538C22.0079 45.1159 24.5711 46.7947 27.4378 47.7096C30.3045 48.6245 33.3663 48.741 36.2942 48.0466C39.2222 47.3521 41.9055 45.873 44.0561 43.7682C46.2066 41.6634 47.7429 39.0124 48.5 36.1C47.89 36.16 47.28 36.2 46.66 36.2Z" fill="#72B9D5" stroke="#72B9D5" stroke-width="3" stroke-linecap="round" stroke-linejoin="round"/>
</svg>
