<svg width="69" height="61" viewBox="0 0 69 61" fill="none" xmlns="http://www.w3.org/2000/svg">
<g filter="url(#filter0_d_29_43)">
<path d="M4 26.4751C4 25.8768 4.22976 25.3532 4.71798 24.9294C5.20621 24.5306 5.80932 24.3311 6.44115 24.3311H12.2999C12.9605 24.3311 13.5061 24.5306 13.9656 24.9544C14.3964 25.3782 14.6262 25.8768 14.6262 26.4751C14.6262 27.0734 14.4251 27.572 13.9943 27.9958C13.5636 28.4196 12.9892 28.619 12.3286 28.619H6.46987C5.80932 28.619 5.23493 28.4196 4.7467 27.9958C4.25848 27.572 4 27.0734 4 26.4751ZM12.2137 43.7512C12.2137 43.1778 12.4435 42.6792 12.8743 42.2305L17.096 38.6656C17.5268 38.2667 18.1012 38.0922 18.7905 38.0922C19.4798 38.0922 20.0541 38.2916 20.5137 38.6656C20.9732 39.0395 21.2029 39.5132 21.2029 40.0865C21.2029 40.6849 20.9732 41.2333 20.5137 41.682L16.4355 45.222C15.258 46.0198 14.0805 46.0198 12.903 45.222C12.4435 44.8231 12.2137 44.3246 12.2137 43.7512ZM12.2137 9.24882C12.2137 8.67545 12.4435 8.17686 12.8743 7.72813C13.4487 7.30433 14.0518 7.10489 14.7123 7.10489C15.3442 7.10489 15.9185 7.30433 16.4068 7.7032L20.5137 11.3678C20.9732 11.7418 21.2029 12.2404 21.2029 12.8387C21.2029 13.437 20.9732 13.9356 20.5137 14.3344C20.0541 14.7333 19.4798 14.9327 18.7905 14.9327C18.1012 14.9327 17.5268 14.7333 17.096 14.3344L12.903 10.7695C12.4435 10.3706 12.2137 9.84713 12.2137 9.24882ZM19.5372 26.4751C19.5372 24.1566 20.1977 21.9878 21.5475 19.9934C22.8974 17.9991 24.7067 16.4036 27.033 15.2319C29.3592 14.0602 31.8291 13.4868 34.5 13.4868C36.5104 13.4868 38.4346 13.8358 40.3013 14.5339C42.1394 15.2319 43.7476 16.1543 45.0687 17.326C46.4185 18.4976 47.4812 19.8688 48.2566 21.4643C49.032 23.0597 49.4341 24.7549 49.4341 26.5C49.4341 28.8434 48.7735 31.0122 47.4237 33.0066C46.0739 35.0009 44.2646 36.5715 41.967 37.7432C39.6695 38.9149 37.1709 39.4882 34.4713 39.4882C31.7717 39.4882 29.2731 38.9149 26.9755 37.7432C24.678 36.5715 22.8686 35.0009 21.5188 33.0066C20.2265 30.9873 19.5372 28.8184 19.5372 26.4751ZM24.4195 26.4751C24.4195 28.9182 25.396 30.9873 27.3776 32.7074C29.3305 34.4276 31.7142 35.3001 34.5287 35.3001C37.3432 35.3001 39.7269 34.4276 41.7086 32.7074C43.6902 30.9873 44.6954 28.9182 44.6954 26.4751C44.6954 24.0818 43.6902 22.0376 41.7086 20.3175C39.7269 18.6223 37.3432 17.7747 34.5287 17.7747C31.7429 17.7747 29.3592 18.6223 27.4063 20.3175C25.3959 22.0376 24.4195 24.0818 24.4195 26.4751ZM32.0588 45.8702C32.0588 45.2719 32.2886 44.7733 32.7768 44.3744C33.2651 43.9755 33.8395 43.7761 34.5 43.7761C35.1893 43.7761 35.7924 43.9755 36.2519 44.3744C36.7114 44.7733 36.9411 45.2719 36.9411 45.8702V50.8311C36.9411 51.4294 36.7114 51.953 36.2232 52.3768C35.7349 52.8006 35.1605 53 34.5 53C33.8395 53 33.2363 52.8006 32.7768 52.3768C32.2886 51.953 32.0588 51.4294 32.0588 50.8311V45.8702ZM32.0588 7.22954V2.14393C32.0588 1.57056 32.2886 1.07197 32.7768 0.648166C33.2651 0.224366 33.8395 0 34.5287 0C35.218 0 35.7637 0.199436 36.2519 0.623236C36.7401 1.04704 36.9699 1.54563 36.9699 2.119V7.22954C36.9699 7.80292 36.7401 8.27658 36.2519 8.67545C35.7637 9.07432 35.1893 9.24882 34.5287 9.24882C33.8682 9.24882 33.2651 9.04939 32.8056 8.67545C32.346 8.3015 32.0588 7.80292 32.0588 7.22954ZM47.912 40.0865C47.912 39.5132 48.1417 39.0395 48.5725 38.6905C49.0033 38.2916 49.549 38.1171 50.1808 38.1171C50.8701 38.1171 51.4444 38.3166 51.9039 38.6905L56.097 42.2554C56.5565 42.6792 56.7863 43.2027 56.7863 43.7761C56.7863 44.3495 56.5565 44.8481 56.097 45.2469C54.9482 46.0198 53.7994 46.0198 52.6507 45.2469L48.5725 41.707C48.1417 41.2582 47.912 40.7347 47.912 40.0865ZM47.912 12.8636C47.912 12.2404 48.1417 11.7418 48.5725 11.3928L52.6507 7.72813C53.1389 7.32926 53.7133 7.12982 54.3451 7.12982C55.0344 7.12982 55.6088 7.32926 56.0683 7.75306C56.5565 8.17686 56.7863 8.67545 56.7863 9.24882C56.7863 9.87206 56.5565 10.3956 56.097 10.7944L51.9039 14.3594C51.387 14.7582 50.8126 14.9577 50.1808 14.9577C49.5202 14.9577 49.0033 14.7582 48.5725 14.3594C48.1417 13.9605 47.912 13.4619 47.912 12.8636ZM54.4025 26.4751C54.4025 25.8768 54.6323 25.3782 55.0918 24.9294C55.5513 24.5306 56.097 24.3311 56.7288 24.3311H62.5301C63.1907 24.3311 63.7651 24.5555 64.2533 24.9793C64.7415 25.4031 65 25.9017 65 26.4751C65 27.0484 64.7415 27.547 64.2533 27.9708C63.7651 28.3946 63.1907 28.5941 62.5301 28.5941H56.7288C56.0683 28.5941 55.4939 28.3946 55.0631 27.9708C54.6323 27.547 54.4025 27.0734 54.4025 26.4751Z" fill="#FDFDFD"/>
</g>
<defs>
<filter id="filter0_d_29_43" x="0" y="0" width="69" height="61" filterUnits="userSpaceOnUse" color-interpolation-filters="sRGB">
<feFlood flood-opacity="0" result="BackgroundImageFix"/>
<feColorMatrix in="SourceAlpha" type="matrix" values="0 0 0 0 0 0 0 0 0 0 0 0 0 0 0 0 0 0 127 0" result="hardAlpha"/>
<feOffset dy="4"/>
<feGaussianBlur stdDeviation="2"/>
<feComposite in2="hardAlpha" operator="out"/>
<feColorMatrix type="matrix" values="0 0 0 0 0 0 0 0 0 0 0 0 0 0 0 0 0 0 0.25 0"/>
<feBlend mode="normal" in2="BackgroundImageFix" result="effect1_dropShadow_29_43"/>
<feBlend mode="normal" in="SourceGraphic" in2="effect1_dropShadow_29_43" result="shape"/>
</filter>
</defs>
</svg>
